<svg width="202" height="302" viewBox="0 0 202 302" fill="none" xmlns="http://www.w3.org/2000/svg">
<path d="M177.486 196.44C177.486 196.44 188.645 193.6 189.248 181.341C189.248 181.341 201.009 187.471 201.461 203.466C201.914 219.462 189.398 226.338 189.398 226.338C189.398 226.338 172.359 215.724 177.486 196.44Z" fill="#FBAF5E"/>
<g opacity="0.62">
<path d="M186.99 211.469C187.13 211.469 187.269 211.469 187.408 211.469C187.408 211.33 187.408 211.33 186.99 211.469Z" fill="#3E240C"/>
<path d="M185.458 205.807L185.041 206.084C185.18 205.945 185.319 205.945 185.458 205.807Z" fill="#3E240C"/>
<path d="M192.422 209.535C192.561 209.535 192.561 209.397 192.701 209.397C192.561 209.535 192.561 209.535 192.422 209.535Z" fill="#3E240C"/>
<path d="M183.926 204.012C183.787 204.012 183.787 204.012 183.648 204.012C183.648 204.152 183.787 204.152 183.926 204.012Z" fill="#3E240C"/>
<path d="M187.687 215.059C189.219 214.782 187.826 215.197 189.358 215.059C188.94 214.92 188.801 214.92 189.497 214.782C190.333 214.782 189.497 215.059 190.751 214.92L190.194 214.782C190.89 214.644 191.865 214.644 191.726 214.506C189.915 214.644 192.283 213.816 192.004 213.678H192.143L192.979 213.264C192.979 213.264 192.979 213.264 193.118 213.264C192.979 213.264 192.979 213.264 192.84 213.264C193.675 212.987 194.233 212.711 193.954 212.435C192.979 212.573 193.397 211.745 192.561 211.883C192.84 211.883 192.84 212.021 192.701 212.159L191.447 212.435C191.447 212.159 192.561 212.159 191.726 212.159C190.054 212.573 191.726 212.435 191.586 212.573C191.169 212.573 190.89 212.573 190.612 212.573C190.612 212.849 190.054 213.264 191.865 213.125C191.586 213.264 190.89 213.402 190.612 213.264C191.586 213.264 189.776 213.54 190.612 213.54C189.079 213.678 189.776 213.264 188.801 213.264C189.915 212.711 188.801 212.711 188.383 212.435C189.497 212.159 190.472 212.159 191.169 211.883C191.865 211.469 190.472 211.745 189.776 211.745C190.054 211.469 191.586 211.192 191.586 210.916H192.422C193.954 210.226 191.726 210.916 192.004 210.64C191.586 210.778 191.169 210.916 191.308 211.054C190.751 211.192 190.472 211.192 190.333 211.054C189.497 211.192 188.801 211.469 189.079 211.054C190.054 210.916 189.776 210.64 190.194 210.502H190.472C190.054 210.502 190.194 210.226 190.054 210.226H190.333C189.915 210.226 188.801 210.502 188.94 210.364C189.358 210.226 190.751 209.95 190.472 209.95C191.169 209.812 191.308 209.95 191.169 210.226C191.308 209.95 192.422 209.535 192.561 209.674C193.397 209.397 192.143 209.535 192.422 209.397C192.143 209.535 191.865 209.535 191.586 209.674C192.701 209.259 191.586 209.259 190.751 209.535H191.447C190.472 209.812 189.776 209.812 189.358 210.088C190.751 209.535 188.522 209.812 189.637 209.259L188.94 209.674C189.219 209.121 187.408 209.397 186.99 209.259C187.547 209.121 189.079 208.569 188.662 208.983C188.801 208.569 190.194 208.293 190.89 207.74C191.308 207.188 189.358 208.155 188.801 208.293L189.219 208.431C187.269 208.983 189.219 207.602 187.965 207.74C188.383 207.464 188.244 207.74 188.522 207.602C189.358 207.05 188.244 207.464 187.826 207.602C187.965 207.326 188.244 206.912 189.358 206.498C189.497 206.222 188.662 206.912 188.244 206.912L188.522 206.774L187.13 207.188C187.408 206.912 187.826 206.36 188.94 205.669C188.522 205.393 186.433 206.912 185.876 206.912C186.294 206.498 186.712 206.498 187.13 206.222L186.851 206.084C188.105 205.531 187.687 205.945 189.079 205.255C187.547 205.807 188.522 205.255 187.408 205.531L187.269 205.669C186.294 206.084 186.712 205.393 186.433 205.393C186.99 205.117 187.269 205.255 187.547 205.255C187.965 204.841 187.13 204.565 185.876 205.255C186.015 204.979 186.294 204.565 186.99 204.289C186.99 203.874 185.18 205.255 185.319 204.841L186.155 204.15C187.13 202.908 184.483 204.427 185.458 203.184L184.344 204.012C184.762 203.598 184.901 203.322 185.18 202.908L185.598 202.77C186.433 201.941 184.623 203.322 185.18 202.632C184.901 202.908 184.205 203.598 183.926 203.874C185.041 204.012 183.926 205.669 185.458 205.531C185.598 205.393 185.737 205.255 185.876 205.117C185.598 205.393 186.015 205.255 185.458 205.669H185.319C185.737 205.669 184.344 206.636 184.483 206.774C185.319 206.36 184.344 207.326 185.598 206.36L184.762 206.912C185.319 206.636 185.876 206.222 186.155 206.222C186.155 206.36 185.598 206.774 185.18 206.774C184.901 207.464 185.319 207.879 186.015 208.155L185.319 208.293C185.041 208.569 186.712 208.155 184.901 208.845C185.737 208.707 184.623 209.674 186.433 208.845C184.762 209.812 185.876 209.674 186.294 209.95C187.826 209.259 186.851 210.088 187.547 209.812C186.294 210.226 186.155 209.95 185.458 210.364C187.408 209.95 184.344 211.745 187.547 210.778C187.408 210.916 187.269 210.916 187.13 210.916C187.13 210.916 186.573 211.192 186.573 211.33C187.13 211.192 187.408 210.916 187.547 211.054C187.408 211.192 186.573 211.469 186.155 211.607C186.99 211.607 187.408 211.883 188.662 211.607C188.383 211.745 187.687 212.021 187.408 212.021C188.522 212.159 187.269 212.435 187.965 212.711C187.826 212.573 186.573 212.987 187.13 212.573C185.319 213.125 187.547 213.125 186.712 213.54L187.965 213.402C188.244 213.54 187.13 213.816 186.573 213.678C185.876 214.092 186.573 214.092 186.712 214.368C186.573 214.368 186.294 214.368 186.433 214.368V214.644C186.712 214.644 187.408 214.644 188.105 214.644C187.687 215.335 187.269 215.335 187.687 215.059Z" fill="#3E240C"/>
<path d="M192.701 210.64C192.422 210.778 192.283 210.778 192.283 210.916C192.422 210.778 192.561 210.64 192.701 210.64Z" fill="#3E240C"/>
<path d="M190.612 218.787C192.422 218.787 190.333 218.51 190.751 218.372C191.029 218.51 192.144 218.51 192.561 218.51C190.194 218.234 192.979 218.234 192.561 217.82C193.397 217.82 193.397 217.958 194.233 218.096C193.676 217.82 193.258 217.544 192.004 217.406C192.004 216.992 192.422 216.715 192.144 216.577C192.701 216.854 193.397 216.577 194.651 216.715C193.119 216.439 191.308 215.887 189.358 215.749C190.751 215.611 190.89 215.473 192.283 215.473C193.119 214.92 190.89 215.473 191.308 215.059L191.029 215.335C190.612 215.197 189.219 215.335 188.244 215.335L188.523 215.749C187.548 215.887 187.687 215.611 187.408 215.473C186.155 215.473 186.573 215.749 185.598 215.887C186.433 215.887 186.155 216.025 186.573 216.163H186.016C185.458 216.439 186.851 216.439 186.851 216.577C186.712 216.577 186.573 216.577 186.433 216.577C186.991 216.577 187.826 216.577 187.965 216.715V216.577C189.219 216.715 190.055 216.992 191.447 216.715L191.029 217.268C189.637 217.268 187.548 217.268 187.269 216.992H186.712C185.876 217.13 187.826 217.406 188.94 217.268C192.283 217.406 189.08 217.958 190.472 218.372C189.497 218.372 189.219 218.234 188.523 218.096C188.383 217.958 188.383 217.958 189.219 217.958C188.662 217.544 186.294 218.096 186.573 217.544C186.99 217.268 188.105 217.82 188.105 217.406L185.598 217.268C185.737 217.406 186.155 217.544 186.433 217.82C187.269 218.234 187.269 218.648 187.13 218.925C186.991 219.201 186.573 219.339 186.573 219.339C186.712 220.582 186.851 221.962 186.712 223.343C186.991 223.895 186.851 223.895 189.08 224.862C189.637 225 189.497 224.586 190.333 225C189.497 224.724 189.08 224.31 189.219 224.172C190.055 224.448 189.637 224.448 189.776 224.448H189.915C190.333 224.586 190.612 224.724 190.612 224.862C192.004 225 191.865 224.31 190.194 223.619C191.169 223.619 191.587 224.172 192.144 224.448C192.979 223.757 192.979 223.067 193.258 222.238C191.726 221.962 192.283 221.962 191.169 221.686H191.726C191.447 221.686 190.333 221.41 190.055 221.548C191.447 221.272 187.965 220.72 187.269 220.305L188.105 220.443C187.965 220.167 187.965 220.167 187.548 219.891C189.219 219.615 187.826 220.305 189.776 220.305L189.497 220.167C190.333 220.305 191.726 220.582 192.283 220.72C191.029 220.167 192.84 220.167 191.865 219.615C192.84 219.753 193.536 220.167 193.536 220.305C193.676 220.167 192.979 219.753 193.815 219.891L192.701 219.753C192.561 219.477 193.815 219.891 194.511 219.753C194.929 218.925 191.308 219.339 190.612 218.787Z" fill="#3E240C"/>
<path d="M190.751 212.435C190.612 212.574 190.751 212.574 190.889 212.574C190.889 212.574 190.889 212.435 190.751 212.435Z" fill="#3E240C"/>
<path d="M194.79 213.125C194.233 213.264 194.233 213.125 193.536 213.264C193.954 213.264 193.954 213.54 194.79 213.125Z" fill="#3E240C"/>
<path d="M182.255 194.347C181.977 194.623 181.698 194.761 181.559 195.037L181.977 194.899L182.255 194.347Z" fill="#3E240C"/>
<path d="M181.837 195.728L181.698 196.28L182.812 195.176C182.673 194.899 182.116 195.866 181.837 195.728Z" fill="#3E240C"/>
<path d="M181.837 196.832L181.559 197.109C181.698 196.971 181.837 196.832 181.837 196.832Z" fill="#3E240C"/>
<path d="M182.255 196.28L183.091 195.452L182.255 195.866V196.28C181.976 196.418 181.976 196.694 181.837 196.832L182.394 196.28C182.394 196.28 182.255 196.418 182.255 196.28Z" fill="#3E240C"/>
<path d="M182.534 196.418C182.534 196.28 182.673 196.28 182.673 196.142C182.673 196.28 182.534 196.418 182.534 196.418Z" fill="#3E240C"/>
<path d="M181.698 198.489C181.976 198.075 182.394 197.799 182.812 197.385C182.951 196.832 181.837 198.213 181.976 197.661C182.812 197.247 182.255 197.109 182.673 196.556C181.976 197.247 181.559 197.937 181.698 198.489L182.116 197.799C182.116 197.937 181.837 198.213 181.698 198.489Z" fill="#3E240C"/>
<path d="M183.787 197.937L182.951 198.627C183.23 198.213 183.091 198.075 183.787 197.247C183.648 197.247 183.23 197.661 182.951 197.799C183.23 197.385 183.509 196.971 182.951 197.523C182.812 198.351 182.534 198.489 182.673 199.042C182.534 199.18 182.534 199.18 182.534 199.042L182.394 199.594C183.091 198.627 183.509 198.766 183.787 197.937Z" fill="#3E240C"/>
<path d="M183.509 198.904C183.369 198.766 182.534 199.456 182.116 200.008L182.951 199.732C182.951 199.594 182.812 199.594 183.509 198.904Z" fill="#3E240C"/>
<path d="M183.787 199.042C183.508 199.456 182.673 200.422 183.508 199.732C183.23 199.732 184.483 198.627 183.787 199.042Z" fill="#3E240C"/>
<path d="M184.066 200.837L184.344 200.008C185.319 198.904 184.762 199.87 185.319 199.456C185.319 199.042 185.041 199.456 184.205 199.87C184.205 199.732 183.508 200.146 183.23 200.284C184.344 200.008 181.976 202.355 184.066 200.837Z" fill="#3E240C"/>
<path d="M184.483 199.318L184.066 199.732L184.483 199.456V199.318Z" fill="#3E240C"/>
<path d="M183.648 202.632C182.534 203.874 184.623 202.355 184.344 203.046C184.205 203.046 184.205 203.184 183.926 203.322H184.205L183.926 203.598C184.623 202.908 185.18 202.908 185.876 202.494C186.573 201.665 184.901 203.184 185.598 202.217C186.015 201.941 186.573 201.527 186.851 201.389C186.433 201.527 185.876 201.941 185.458 202.217C185.319 202.217 185.737 201.803 186.015 201.527C185.458 201.803 184.344 202.77 184.483 202.355C185.041 201.665 185.598 201.527 185.18 201.527C184.066 202.632 185.18 201.113 184.344 201.803C184.483 201.389 185.041 200.699 185.458 200.284C184.483 201.113 183.648 201.665 183.23 201.803L184.205 201.389L183.23 202.494C183.648 202.079 183.648 202.355 183.648 202.632Z" fill="#3E240C"/>
<path d="M186.712 201.389C186.851 201.389 186.851 201.251 186.99 201.251C186.99 201.251 186.851 201.251 186.712 201.389Z" fill="#3E240C"/>
<path d="M185.458 200.008L185.737 199.87L186.015 199.456L185.458 200.008Z" fill="#3E240C"/>
<path d="M187.687 200.837C187.687 200.699 187.269 201.113 187.269 201.113L187.826 200.699L187.687 200.837Z" fill="#3E240C"/>
<path d="M186.99 201.665L186.433 202.217L186.99 201.941V201.665Z" fill="#3E240C"/>
<path d="M189.219 206.36C189.637 205.945 188.662 206.498 188.105 206.774C188.105 207.188 188.94 206.36 189.219 206.36Z" fill="#3E240C"/>
<path d="M191.726 208.983C192.283 208.569 191.308 208.707 191.308 208.569C190.89 208.845 191.308 208.983 191.726 208.983Z" fill="#3E240C"/>
<path d="M195.486 209.397C195.208 209.397 194.929 209.397 194.929 209.535L193.118 209.812C192.561 210.364 194.79 209.674 195.486 209.397Z" fill="#3E240C"/>
<path d="M196.182 211.192L195.486 211.054V211.192C194.79 211.33 194.372 211.33 193.815 211.33C194.233 211.469 194.929 211.469 196.182 211.192Z" fill="#3E240C"/>
<path d="M193.397 211.193C193.397 211.193 193.536 211.193 193.397 211.193C193.815 211.193 193.954 211.054 193.397 211.193Z" fill="#3E240C"/>
<path d="M193.536 211.331C193.675 211.331 193.675 211.331 193.675 211.331C193.675 211.331 193.675 211.192 193.536 211.331C193.258 211.331 193.397 211.331 193.536 211.331Z" fill="#3E240C"/>
<path d="M195.347 211.607L195.625 212.021L195.904 211.745C194.929 211.883 196.6 211.33 195.347 211.607Z" fill="#3E240C"/>
<path d="M194.929 214.23L193.815 214.368C193.675 214.644 195.904 214.782 194.232 215.197C194.929 215.059 195.486 215.335 195.764 214.92C194.79 214.92 194.65 214.506 194.929 214.23Z" fill="#3E240C"/>
<path d="M193.536 215.611C193.258 215.611 192.979 215.611 192.701 215.749C192.561 215.887 193.118 215.887 193.536 215.887C192.004 215.887 194.372 215.611 193.536 215.611Z" fill="#3E240C"/>
<path d="M193.676 216.992C193.676 216.854 193.536 216.854 193.258 216.992C193.397 217.268 194.511 217.13 195.208 217.268C195.904 216.854 194.233 216.715 193.676 216.992Z" fill="#3E240C"/>
<path d="M185.737 218.649C186.712 218.649 186.573 218.51 186.155 218.51C186.433 218.51 186.155 218.649 185.737 218.649Z" fill="#3E240C"/>
<path d="M193.397 219.063L193.536 218.925L192.143 218.787L193.397 219.063Z" fill="#3E240C"/>
<path d="M193.954 220.582L194.929 220.858L194.79 220.582H193.954Z" fill="#3E240C"/>
<path d="M193.675 220.858V221.134H194.093C194.372 220.996 193.675 220.996 193.675 220.858Z" fill="#3E240C"/>
<path d="M193.815 221.686C193.676 221.686 193.954 221.686 194.093 221.686L193.536 221.41L193.815 221.686Z" fill="#3E240C"/>
<path d="M187.408 224.033C186.573 223.757 186.99 224.033 186.851 223.895C186.99 224.033 188.244 224.31 187.408 224.033Z" fill="#3E240C"/>
</g>
<path d="M14.4848 137.391C14.4848 137.391 12.0722 201.822 17.6513 274.175C17.6513 274.175 8.30251 285.686 13.7309 301.084C13.7309 301.084 47.3565 301.084 51.7293 301.084C51.7293 301.084 60.7766 284.191 62.2844 261.02H92.1404C92.1404 261.02 103.299 276.866 111.14 290.171C113.552 294.207 114.758 299.589 116.568 301.084C116.568 301.084 181.256 301.084 182.311 301.084C183.367 301.084 194.525 263.711 192.112 231.271C191.962 229.627 191.811 227.983 191.66 226.338C190.755 219.462 189.097 213.781 186.986 208.698C184.875 203.915 182.462 199.729 179.446 195.842C172.51 186.574 163.463 179.548 154.416 170.877C140.996 158.021 130.591 131.86 130.591 131.86C130.591 131.86 134.813 123.189 89.4262 121.097C44.0391 119.153 16.7466 125.581 14.4848 137.391Z" fill="#FBAF5E"/>
<path d="M92.1403 261.02L87.7675 254.442" stroke="#1B1C1E" stroke-width="1.2604" stroke-miterlimit="10" stroke-linecap="round" stroke-linejoin="round"/>
<path d="M120.639 199.131C111.743 217.219 102.092 219.163 102.092 219.163C90.7832 232.617 85.5056 232.916 85.5056 232.916C79.4741 240.839 67.8635 248.762 67.8635 248.762C59.1178 245.473 50.6737 232.019 50.6737 232.019C43.1344 230.673 36.4997 215.575 36.4997 215.575C21.8733 207.353 15.691 185.826 13.7308 176.707C13.58 152.789 14.1832 137.541 14.1832 137.541C16.5958 125.88 43.7375 119.303 89.1246 121.396C134.512 123.488 130.29 132.159 130.29 132.159C130.29 132.159 131.948 136.195 134.662 141.876C144.765 180.444 120.639 199.131 120.639 199.131Z" fill="#FFF0DD"/>
<path d="M130.44 131.86C133.004 138.438 131.647 145.912 126.671 150.995C114.457 163.552 89.8785 183.883 61.3797 179.847C46.4517 177.754 35.4442 171.924 27.7541 165.944C18.8576 159.067 14.0324 148.453 14.3339 137.242C16.7465 125.581 43.8883 119.004 89.2753 121.097C134.662 123.19 130.44 131.86 130.44 131.86Z" fill="#EC6495"/>
<path d="M76.0061 174.614C76.0061 167.439 70.1254 161.758 63.0384 161.758C55.9514 161.758 50.0707 167.588 50.0707 174.614C50.0707 177.903 51.277 180.893 53.388 183.135C55.8006 185.826 59.2687 187.471 63.0384 187.471C70.1254 187.471 76.0061 181.79 76.0061 174.614Z" fill="#FFAE1F"/>
<path d="M53.2371 183.135C55.6497 185.826 59.1178 187.471 62.8875 187.471C70.1253 187.471 75.8552 181.64 75.8552 174.614" stroke="#1B1C1E" stroke-width="1.2604" stroke-miterlimit="10" stroke-linecap="round" stroke-linejoin="round"/>
<path d="M93.9498 49.1916C93.9498 49.1916 108.878 22.8812 114.457 3.59688C115.512 0.00909782 119.885 -1.18683 122.75 1.35451C133.607 11.3704 151.852 37.0828 126.821 83.2755C126.972 83.2755 92.2911 70.4193 93.9498 49.1916Z" fill="#FBAF5E"/>
<path d="M125.917 74.1565C123.655 69.3728 120.79 64.5891 116.719 60.5529C112.195 56.0681 111.14 49.1916 113.552 43.3614C117.774 33.495 121.393 21.6853 123.052 16.0046C123.504 14.5097 125.464 14.2107 126.369 15.5561C143.71 40.2221 125.917 74.1565 125.917 74.1565Z" fill="#BC763C"/>
<path d="M125.917 74.1565C124.409 77.2958 99.5289 67.4295 107.671 55.1712C107.822 54.8722 108.124 54.4237 108.425 54.1248C117.02 58.9085 122.298 66.383 125.917 74.1565Z" fill="#BC763C"/>
<path d="M140.543 118.256C130.893 136.046 113.251 149.201 97.2671 158.32C75.8552 170.429 49.1659 168.336 30.1666 152.789C4.68354 132.009 -1.95111 110.931 0.461493 109.287C1.51701 108.539 3.32645 105.101 5.28669 100.915C5.28669 100.915 12.6753 100.018 26.2462 107.493C39.6663 114.818 49.6182 109.137 52.1816 84.6209C55.0466 55.6197 60.0226 47.6967 60.0226 47.6967C64.697 47.2482 70.4269 46.9492 76.4584 47.2482C76.4584 47.2482 66.0541 88.5076 77.9663 106.447C86.2596 119.004 103.6 110.632 114.306 104.952C124.861 99.4205 133.305 98.972 133.305 98.972C133.607 99.8689 133.758 100.766 133.908 101.364C136.17 109.287 140.543 118.256 140.543 118.256Z" fill="#FFF0DD"/>
<path d="M52.1816 48.8926C54.2926 48.2946 56.856 47.9956 60.0226 47.5472C60.0226 47.5472 55.0466 55.4702 52.1816 84.4714C49.769 108.838 39.817 114.669 26.2462 107.343C12.8261 99.8689 5.28668 100.766 5.28668 100.766C9.20716 91.9459 13.7308 79.5382 13.7308 79.5382C-5.87158 36.3353 14.7863 11.3704 27.0001 1.20502C30.1666 -1.33633 34.9918 0.457559 35.595 4.49381C39.2139 27.9639 52.1816 48.8926 52.1816 48.8926Z" fill="#FBAF5E"/>
<path d="M133.004 98.8225C133.004 98.8225 124.56 99.271 114.004 104.802C103.449 110.333 86.1088 118.854 77.6647 106.297C65.9033 88.3582 76.1568 47.0987 76.1568 47.0987C85.0533 47.3977 94.4021 48.5936 101.941 51.2844C103.6 51.8824 105.108 52.4804 106.616 53.2278C107.068 53.5268 107.671 53.6763 108.124 53.9753C116.719 58.759 122.147 66.2335 125.615 74.007C126.671 76.0999 127.425 78.1928 128.179 80.2856C130.893 87.7602 132.099 94.6368 133.004 98.8225Z" fill="#FBAF5E"/>
<path d="M66.2049 120.499C62.8875 123.19 58.2131 123.04 55.0466 120.2C52.1816 117.658 49.0151 113.921 49.0151 109.735C49.0151 104.952 71.1808 104.802 71.784 109.735C72.5379 113.921 69.3714 117.808 66.2049 120.499Z" fill="#1B1C1E"/>
<path d="M42.8328 98.5235C42.8328 100.915 41.0233 103.606 38.3091 103.457C35.4442 103.158 34.2379 100.616 34.2379 98.374C34.2379 95.9822 36.3489 94.1883 38.6107 94.1883C41.0233 94.1883 42.8328 96.1317 42.8328 98.5235Z" fill="#1B1C1E"/>
<path d="M89.1246 99.8689C89.1246 102.261 87.1643 104.653 84.9025 104.503C82.4899 104.503 80.5297 101.962 80.6805 99.57C80.6805 97.1781 82.7915 95.3842 85.0533 95.3842C87.3151 95.5337 89.1246 97.4771 89.1246 99.8689Z" fill="#1B1C1E"/>
<path d="M29.1112 59.6559C23.5321 64.2901 19.3101 69.9708 16.7467 74.1565C-1.19705 40.9696 24.5876 3.44738 25.4923 18.0975C25.9447 25.7215 29.7144 35.5879 33.0317 43.2119C35.7459 48.8926 34.0872 55.6197 29.1112 59.6559Z" fill="#BC763C"/>
<g opacity="0.62">
<path d="M50.8793 260.059C50.8793 260.179 50.7586 260.299 50.7586 260.418C50.7586 260.418 50.8793 260.299 50.8793 260.059Z" fill="#3E240C"/>
<path d="M46.2931 257.906L46.5345 257.547C46.5345 257.666 46.4138 257.786 46.2931 257.906Z" fill="#3E240C"/>
<path d="M49.9137 263.051C49.9137 263.17 49.9137 263.29 49.793 263.649L49.9137 263.051Z" fill="#3E240C"/>
<path d="M48.5862 264.367C48.5862 264.487 48.4655 264.487 48.4655 264.606C48.4655 264.487 48.4655 264.487 48.5862 264.367Z" fill="#3E240C"/>
<path d="M55.3448 260.539C55.3448 260.418 55.3448 260.418 55.3448 260.418C55.465 260.418 55.3448 260.418 55.3448 260.539Z" fill="#3E240C"/>
<path d="M55.2241 261.854C55.3442 261.974 55.2241 261.974 55.2241 261.854V261.854Z" fill="#3E240C"/>
<path d="M55.4655 259.94C55.4655 260.059 55.4655 260.179 55.4655 260.299C55.4655 260.179 55.3448 260.179 55.4655 259.94Z" fill="#3E240C"/>
<path d="M51 259.94C51 260.059 50.8793 260.059 50.8793 260.179C51 260.059 51 259.94 51 259.94Z" fill="#3E240C"/>
<path d="M45.0863 256.35C45.0863 256.231 45.0863 256.231 45.0863 256.111C45.207 256.111 45.207 256.231 45.0863 256.35Z" fill="#3E240C"/>
<path d="M53.8966 261.136C53.4138 262.452 54.0172 261.256 53.6552 262.452C53.6552 262.094 53.6552 261.974 53.4138 262.572C53.2931 263.29 53.6552 262.572 53.2931 263.649V263.17C53.0517 263.649 52.931 264.606 52.8104 264.487C53.1724 262.931 52.2069 264.965 52.0862 264.606V264.726L51.6035 265.324C51.6035 265.324 51.6035 265.324 51.6035 265.444C51.6035 265.324 51.6034 265.324 51.7241 265.204C51.3621 265.922 51 266.281 50.8793 266.042C51.1207 265.204 50.3965 265.563 50.5172 264.726C50.5172 264.965 50.5172 264.965 50.7586 264.846L51.1207 263.888C51 263.888 50.7586 264.846 50.7586 264.128C51.3621 262.811 51 264.247 51.2414 264.128C51.3621 263.769 51.3621 263.529 51.3621 263.29C51.6034 263.29 51.9655 262.931 51.7241 264.367C51.8448 264.128 52.0862 263.529 52.0862 263.41C51.9655 264.247 52.4483 262.692 52.3276 263.41C52.6897 262.094 52.2069 262.572 52.3276 261.854C51.7241 262.811 51.8448 261.735 51.7241 261.495C51.3621 262.452 51.1207 263.29 50.8793 263.769C50.3966 264.247 50.8793 263.17 51 262.572C50.6379 262.811 50.2759 264.008 50.0345 264.008L49.9138 264.606C49.1897 265.803 50.0345 264.008 49.7931 264.247C50.0345 263.888 50.1552 263.649 50.2759 263.769C50.5172 263.29 50.5172 263.051 50.5172 263.051C50.7586 262.452 51 261.735 50.7586 261.974C50.5172 262.811 50.3965 262.452 50.1552 262.811V262.931C50.1552 262.572 50.0345 262.692 50.0345 262.452L49.9138 262.692C50.0345 262.333 50.3965 261.376 50.1552 261.615C49.9138 261.974 49.5517 263.051 49.5517 262.811C49.3103 263.41 49.431 263.529 49.6724 263.41C49.431 263.529 48.8276 264.367 49.069 264.487C48.7069 265.204 49.069 264.128 48.8276 264.367C48.9483 264.128 49.069 263.888 49.1897 263.649C48.7069 264.606 48.8276 263.529 49.1897 262.931L49.069 263.529C49.5517 262.811 49.5517 262.213 49.9138 261.854C49.1897 262.931 49.7931 261.017 49.1897 261.974L49.5517 261.376C49.069 261.615 49.5517 260.059 49.5517 259.581C49.431 259.94 48.5862 261.256 49.069 260.897C48.5862 260.897 48.2241 262.094 47.7414 262.572C47.2586 262.811 48.3448 261.376 48.5862 260.897V261.256C49.3104 259.7 47.8621 261.136 48.1034 260.059C47.8621 260.418 47.9828 260.299 47.9828 260.418C47.3793 261.017 47.9828 260.179 48.1034 259.82C47.8621 259.82 47.5 260.059 46.8965 260.897C46.5345 261.017 47.2586 260.418 47.3793 260.059L47.2586 260.179L47.8621 259.102C47.5 259.342 47.0172 259.581 46.2931 260.299C46.1724 259.94 47.7414 258.384 47.8621 257.906C47.3793 258.265 47.3793 258.504 47.1379 258.863L47.0172 258.624C46.2931 259.581 46.7759 259.222 45.931 260.299C46.6552 259.102 45.931 259.82 46.4138 258.863L46.5345 258.743C47.1379 257.906 46.4138 258.265 46.4138 258.025C46.0517 258.504 46.1724 258.624 46.0517 258.863C45.569 259.102 45.569 258.504 46.2931 257.427C46.0517 257.547 45.569 257.666 45.3276 258.145C44.9655 258.025 46.5345 256.829 46.0517 256.829L45.3276 257.547C44.1207 258.265 45.8103 256.231 44.6035 256.829L45.4483 255.991C45.0862 256.231 44.7241 256.35 44.3621 256.59L44.1207 256.949C43.2759 257.427 44.7241 256.231 44.1207 256.59C44.3621 256.35 45.0862 255.991 45.3276 255.752C45.3276 256.709 46.8965 255.991 46.5345 257.307C46.4138 257.427 46.2931 257.547 46.1724 257.666C46.4138 257.547 46.2931 257.786 46.7759 257.307V257.188C46.7759 257.547 47.8621 256.59 47.8621 256.59C47.3793 257.188 48.3448 256.59 47.3793 257.547L47.9828 256.949C47.7414 257.307 47.2586 257.786 47.1379 258.025C47.2586 258.025 47.6207 257.666 47.7414 257.307C48.3448 257.188 48.7069 257.666 48.8276 258.265L49.069 257.666C49.3103 257.427 48.7069 258.743 49.5517 257.427C49.3103 258.025 50.2759 257.307 49.3103 258.743C50.3965 257.427 50.1552 258.504 50.2759 258.863C49.431 260.059 50.2759 259.342 50.0345 259.94C50.6379 258.983 50.3965 258.863 50.7586 258.265C50.1552 259.94 52.0862 257.547 50.7586 260.059C50.8793 259.94 50.8793 259.82 51 259.82C51 259.82 51.3621 259.461 51.4828 259.342C51.2414 259.82 51.1207 259.94 51.1207 260.179C51.2414 260.179 51.6034 259.461 51.7241 259.102C51.6034 259.82 51.8448 260.179 51.3621 261.256C51.6034 261.017 51.8448 260.418 51.9655 260.179C51.9655 261.136 52.3276 260.179 52.4483 260.777C52.3276 260.658 52.8103 259.7 52.569 260.059C53.2931 258.624 52.931 260.538 53.5345 259.82L53.2931 260.777C53.4138 261.017 53.7759 260.059 53.7759 259.7C54.2586 259.222 54.1379 259.82 54.3793 259.94C54.3793 259.82 54.5 259.581 54.3793 259.7H54.6207C54.6207 259.94 54.5 260.538 54.2586 261.136C54.1379 261.136 54.2586 260.777 53.8966 261.136Z" fill="#3E240C"/>
<path d="M49.431 264.726C49.5517 264.487 49.6724 264.367 49.6724 264.367C49.5517 264.606 49.431 264.726 49.431 264.726Z" fill="#3E240C"/>
<path d="M56.6724 264.247C56.4311 265.803 56.5517 264.008 56.3104 264.367C56.4311 264.606 56.1897 265.563 56.1897 265.922C56.3104 263.888 55.9483 266.281 55.5862 265.803C55.4655 266.401 55.5862 266.64 55.4655 267.358C55.3448 266.88 55.1035 266.521 55.2242 265.324C54.8621 265.204 54.6207 265.563 54.3793 265.324C54.5 265.803 54.1379 266.401 54.1379 267.478C54.1379 266.162 54.0173 264.487 54.1379 262.811C53.7759 264.008 53.7759 264.128 53.4138 265.204C52.8104 265.922 53.6552 264.008 53.1724 264.247L53.4138 264.128C53.4138 263.769 53.6552 262.572 53.8966 261.735L54.2586 261.974C54.5 261.136 54.2586 261.256 54.2586 261.017C54.5 260.059 54.6207 260.418 54.8621 259.581C54.7414 260.299 54.8621 260.059 54.8621 260.418L54.9828 259.94C55.2241 259.461 55.1035 260.658 55.2242 260.658C55.2242 260.538 55.3448 260.418 55.3448 260.418C55.2242 260.897 55.2242 261.495 55.2242 261.735V261.615C55.1035 262.692 55.3448 263.41 54.8621 264.606L55.3448 264.367C55.5862 263.17 55.8276 261.376 55.7069 261.136L55.8276 260.658C56.069 260.059 56.069 261.615 55.7069 262.692C55.3448 265.563 56.3104 262.931 56.4311 264.128C56.5517 263.41 56.4311 263.051 56.4311 262.452C56.3104 262.333 56.3104 262.333 56.1897 262.931C55.9483 262.452 56.6724 260.538 56.3104 260.658C56.069 261.017 56.3104 261.974 55.9483 261.974L56.1897 259.82C56.3104 259.94 56.431 260.299 56.5517 260.538C56.7931 261.256 57.1552 261.376 57.3966 261.256C57.6379 261.136 57.7586 260.897 57.7586 260.897C58.8448 261.256 60.0517 261.495 61.1379 261.615C61.5 261.854 61.6207 261.735 62.1035 263.888C62.1035 264.367 61.8621 264.128 61.9828 264.845C61.8621 264.008 61.6207 263.649 61.3793 263.769C61.3793 264.606 61.6207 264.128 61.6207 264.367C61.7414 264.726 61.7414 265.085 61.8621 265.085C61.7414 266.281 61.138 266.042 60.8966 264.606C60.7759 265.444 61.138 265.803 61.2586 266.401C60.5345 266.999 59.931 266.999 59.2069 266.999C59.2069 265.563 59.0862 266.162 59.0862 265.204L58.9655 265.683C58.9655 265.444 58.9655 264.487 59.0862 264.247C58.6035 265.324 58.7242 262.333 58.4828 261.735V262.452C58.2414 262.333 58.2414 262.333 58.1207 261.854C57.6379 263.17 58.3621 262.094 58.1207 263.888L58 263.649C58 264.367 58 265.563 58.1207 266.042C57.8793 264.845 57.5173 266.521 57.1552 265.563C57.1552 266.401 57.3966 266.999 57.5173 267.119C57.3966 267.239 57.1552 266.64 57.0345 267.358L57.1552 266.401C56.9138 266.281 57.0345 267.358 56.9138 267.956C56.1897 267.956 57.1552 264.845 56.6724 264.247Z" fill="#3E240C"/>
<path d="M51.2414 263.41C51.3615 263.41 51.3615 263.41 51.3615 263.53C51.3615 263.53 51.2414 263.41 51.2414 263.41Z" fill="#3E240C"/>
<path d="M51.6034 265.563C51.6034 265.683 51.4827 265.803 51.4827 265.922C51.4827 265.803 51.6034 265.683 51.6034 265.563Z" fill="#3E240C"/>
<path d="M51.2414 266.88C51.4828 266.521 51.3621 266.401 51.4828 265.922C51.4828 266.281 51.7242 266.281 51.2414 266.88Z" fill="#3E240C"/>
<path d="M37 253.479C37.2414 253.359 37.4828 253 37.7241 253L37.4828 253.359L37 253.479Z" fill="#3E240C"/>
<path d="M38.2069 253.359H38.6896L37.6034 254.077C37.362 253.838 38.3276 253.598 38.2069 253.359Z" fill="#3E240C"/>
<path d="M39.1724 253.479L39.4137 253.239C39.293 253.359 39.2931 253.479 39.1724 253.479Z" fill="#3E240C"/>
<path d="M38.6897 253.838L37.8448 254.436L38.3276 253.838H38.6897C38.9311 253.598 39.0518 253.598 39.1724 253.598L38.569 254.077C38.6897 253.838 38.8104 253.718 38.6897 253.838Z" fill="#3E240C"/>
<path d="M38.6896 254.077C38.5689 254.077 38.5689 254.197 38.4482 254.197C38.5689 254.077 38.6896 254.077 38.6896 254.077Z" fill="#3E240C"/>
<path d="M40.6207 253.598C40.2586 253.718 39.8966 254.077 39.5345 254.316C39.0518 254.316 40.3793 253.598 39.8966 253.598C39.4138 254.197 39.2931 253.838 38.8104 253.957C39.6552 253.598 40.2586 253.359 40.6207 253.359L40.138 253.718C40.0173 253.838 40.3793 253.598 40.6207 253.598Z" fill="#3E240C"/>
<path d="M39.8966 255.273L40.6207 254.675C40.2587 254.914 40.138 254.675 39.2932 255.154C39.4138 255.034 39.6552 254.795 39.8966 254.555C39.4138 254.795 39.0518 254.914 39.6552 254.436C40.3794 254.436 40.5001 254.197 40.9828 254.436C41.1035 254.316 41.1035 254.316 41.1035 254.316L41.7069 254.197C40.5 254.795 40.6207 255.154 39.8966 255.273Z" fill="#3E240C"/>
<path d="M40.6207 255.273C40.5 255.034 41.2241 254.555 41.8276 254.316L41.4655 255.034C41.3448 254.914 41.3448 254.675 40.6207 255.273Z" fill="#3E240C"/>
<path d="M40.8621 255.393C41.3449 255.154 42.3104 254.675 41.5862 255.273C41.4656 255.154 40.3793 255.991 40.8621 255.393Z" fill="#3E240C"/>
<path d="M42.3103 255.991L41.5862 256.111C40.5 256.709 41.3448 256.47 40.9827 256.949C40.6207 256.829 40.9827 256.709 41.4655 256.111C41.3448 256.111 41.8275 255.632 42.0689 255.393C41.4655 256.111 44 254.436 42.3103 255.991Z" fill="#3E240C"/>
<path d="M40.8621 256.111L41.2241 255.872L41.1034 256.231L40.8621 256.111Z" fill="#3E240C"/>
<path d="M43.8793 255.872C45.0862 255.154 43.5172 256.709 44.1207 256.47C44.1207 256.35 44.2414 256.35 44.362 256.231V256.47L44.6034 256.231C43.8793 256.829 43.7586 257.188 43.3965 257.666C42.5517 258.145 44.1207 256.948 43.2758 257.427C43.0345 257.666 42.5517 258.145 42.3103 258.384C42.5517 258.025 42.9138 257.666 43.2758 257.307C43.2758 257.188 42.9138 257.547 42.6724 257.666C42.9138 257.188 44 256.47 43.5172 256.47C42.7931 256.829 42.6724 257.307 42.6724 256.829C43.8793 256.111 42.3103 256.709 43.0345 256.111C42.6724 256.111 41.9483 256.59 41.5862 256.829C42.431 256.231 43.0345 255.513 43.2758 255.273L42.7931 256.111L43.8793 255.393C43.3965 255.872 43.6379 255.872 43.8793 255.872Z" fill="#3E240C"/>
<path d="M42.3104 258.265C42.3104 258.384 42.1897 258.384 42.1897 258.504C42.1897 258.504 42.1897 258.384 42.3104 258.265Z" fill="#3E240C"/>
<path d="M41.3448 257.068L41.1034 257.188L40.8621 257.427L41.3448 257.068Z" fill="#3E240C"/>
<path d="M41.707 258.983C41.707 258.983 41.9484 258.743 42.069 258.743L41.707 259.222V258.983Z" fill="#3E240C"/>
<path d="M42.5517 258.624L43.1551 258.265L42.7931 258.624H42.5517Z" fill="#3E240C"/>
<path d="M46.2931 261.256C45.931 261.495 46.4138 260.897 46.7759 260.299C47.1379 260.299 46.4138 260.897 46.2931 261.256Z" fill="#3E240C"/>
<path d="M48.1034 263.769C47.6207 264.128 47.9828 263.41 47.8621 263.29C48.2241 262.931 48.2241 263.29 48.1034 263.769Z" fill="#3E240C"/>
<path d="M47.8621 266.88C47.9828 266.64 47.9828 266.401 48.1035 266.401L48.7069 264.965C49.1897 264.606 48.2242 266.281 47.8621 266.88Z" fill="#3E240C"/>
<path d="M49.3103 267.837V267.239H49.431C49.6724 266.64 49.6724 266.401 49.7931 265.922C49.7931 266.162 49.7931 266.76 49.3103 267.837Z" fill="#3E240C"/>
<path d="M49.7931 265.444C49.7931 265.444 49.7931 265.563 49.7931 265.444C49.6724 265.683 49.5517 265.922 49.7931 265.444Z" fill="#3E240C"/>
<path d="M49.9138 265.683C49.9138 265.803 49.9138 265.803 49.9138 265.803C49.7931 265.683 49.7931 265.683 49.9138 265.683C49.9138 265.324 49.7931 265.444 49.9138 265.683Z" fill="#3E240C"/>
<path d="M49.7931 267.119L50.1552 267.478L49.9138 267.717C50.1552 266.76 49.431 268.076 49.7931 267.119Z" fill="#3E240C"/>
<path d="M52.2069 267.119L52.569 266.281C52.8103 266.162 52.6897 268.196 53.1724 266.76C52.931 267.239 53.1724 267.837 52.6897 267.956C52.8104 267.239 52.4483 266.999 52.2069 267.119Z" fill="#3E240C"/>
<path d="M53.5345 266.162C53.5345 265.922 53.6552 265.683 53.7759 265.444C53.8966 265.324 53.8966 265.803 53.7759 266.162C54.0173 264.965 53.4138 266.88 53.5345 266.162Z" fill="#3E240C"/>
<path d="M54.7414 266.521C54.6207 266.521 54.6207 266.401 54.7414 266.162C54.9827 266.281 54.6207 267.239 54.6207 267.956C54.2586 268.435 54.5 266.999 54.7414 266.521Z" fill="#3E240C"/>
<path d="M57.3965 260.059C57.2758 260.777 57.1552 260.658 57.1552 260.418C57.1552 260.658 57.2758 260.418 57.3965 260.059Z" fill="#3E240C"/>
<path d="M56.5516 266.64L56.431 266.76L56.5516 265.563V266.64Z" fill="#3E240C"/>
<path d="M57.7586 267.358L57.8793 268.196L57.6379 267.956L57.7586 267.358Z" fill="#3E240C"/>
<path d="M58.1207 267.239L58.362 267.358L58.2414 267.717C58.1207 267.837 58.1207 267.239 58.1207 267.239Z" fill="#3E240C"/>
<path d="M58.7241 267.358C58.7241 267.239 58.7241 267.358 58.6034 267.598L58.3621 267.119L58.7241 267.358Z" fill="#3E240C"/>
<path d="M61.7414 262.333C61.6207 261.495 61.7414 261.974 61.7414 261.854C61.7414 261.974 61.8621 263.051 61.7414 262.333Z" fill="#3E240C"/>
</g>
<path d="M24.1352 301.084C24.1352 301.084 21.8734 289.124 27.3018 283.892" stroke="#1B1C1E" stroke-width="1.2604" stroke-miterlimit="10" stroke-linecap="round" stroke-linejoin="round"/>
<path d="M37.2537 301.084C37.2537 301.084 35.1427 295.253 39.8171 285.387" stroke="#1B1C1E" stroke-width="1.2604" stroke-miterlimit="10" stroke-linecap="round" stroke-linejoin="round"/>
<path d="M62.2843 261.02C62.2843 261.02 43.8883 262.664 34.2379 241.736" stroke="#1B1C1E" stroke-width="1.2604" stroke-miterlimit="10" stroke-linecap="round" stroke-linejoin="round"/>
<path d="M151.4 301.084C151.4 301.084 154.717 293.46 153.209 280.902C151.701 268.345 140.392 217.817 141.749 215.425" stroke="#1B1C1E" stroke-width="1.2604" stroke-miterlimit="10" stroke-linecap="round" stroke-linejoin="round"/>
<path d="M36.6506 215.425C36.6506 215.425 33.6348 208.1 32.7301 201.822" stroke="#1B1C1E" stroke-width="1.2604" stroke-miterlimit="10" stroke-linecap="round" stroke-linejoin="round"/>
<path d="M50.9754 232.019C50.9754 232.019 48.5628 227.833 47.5073 222.9" stroke="#1B1C1E" stroke-width="1.2604" stroke-miterlimit="10" stroke-linecap="round" stroke-linejoin="round"/>
<path d="M85.6565 232.766C85.6565 232.766 90.7833 226.637 91.688 222.75" stroke="#1B1C1E" stroke-width="1.2604" stroke-miterlimit="10" stroke-linecap="round" stroke-linejoin="round"/>
<path d="M102.092 219.013C102.092 219.013 110.838 208.25 112.195 196.44" stroke="#1B1C1E" stroke-width="1.2604" stroke-miterlimit="10" stroke-linecap="round" stroke-linejoin="round"/>
<path d="M120.639 199.131C120.639 199.131 124.409 192.105 125.163 185.079" stroke="#1B1C1E" stroke-width="1.2604" stroke-miterlimit="10" stroke-linecap="round" stroke-linejoin="round"/>
<path d="M128.329 301.084C128.329 301.084 124.711 296.001 125.464 286.732" stroke="#1B1C1E" stroke-width="1.2604" stroke-miterlimit="10" stroke-linecap="round" stroke-linejoin="round"/>
<path d="M139.186 301.084C139.186 301.084 137.678 293.161 139.186 286.732" stroke="#1B1C1E" stroke-width="1.2604" stroke-miterlimit="10" stroke-linecap="round" stroke-linejoin="round"/>
<path d="M159.09 301.084C159.09 301.084 155.622 293.609 159.693 285.537" stroke="#1B1C1E" stroke-width="1.2604" stroke-miterlimit="10" stroke-linecap="round" stroke-linejoin="round"/>
<path d="M170.55 301.084C170.55 301.084 169.042 292.264 174.32 286.732" stroke="#1B1C1E" stroke-width="1.2604" stroke-miterlimit="10" stroke-linecap="round" stroke-linejoin="round"/>
<path d="M61.0781 129.767C61.0781 129.767 76.0061 137.092 83.847 129.618C86.4104 127.226 86.8628 120.798 81.8868 116.313" stroke="#1B1C1E" stroke-width="1.2604" stroke-miterlimit="10" stroke-linecap="round" stroke-linejoin="round"/>
<path d="M60.4751 122.442C60.4751 122.442 60.0227 124.834 61.0782 129.767C61.3798 131.113 45.6979 136.494 39.6664 129.618C37.5553 127.226 36.6506 122.442 41.1742 117.06" stroke="#1B1C1E" stroke-width="1.2604" stroke-miterlimit="10" stroke-linecap="round" stroke-linejoin="round"/>
<path d="M55.0467 132.607C55.0467 132.607 57.1577 133.803 61.3798 134.102C65.9034 134.401 67.7129 132.757 67.7129 132.757" stroke="#1B1C1E" stroke-width="1.2604" stroke-miterlimit="10" stroke-linecap="round" stroke-linejoin="round"/>
<path d="M149.741 261.02C149.741 261.02 155.924 260.87 159.693 254.442" stroke="#1B1C1E" stroke-width="1.2604" stroke-miterlimit="10" stroke-linecap="round" stroke-linejoin="round"/>
<path d="M191.509 226.338C190.605 219.462 188.946 213.781 186.835 208.698C184.724 203.915 182.311 199.729 179.296 195.842" stroke="#1B1C1E" stroke-width="1.2604" stroke-miterlimit="10" stroke-linecap="round" stroke-linejoin="round"/>
<g opacity="0.62">
<path d="M157.627 258.308C157.721 258.402 157.721 258.495 157.816 258.589C157.816 258.589 157.816 258.495 157.627 258.308Z" fill="#3E240C"/>
<path d="M160.546 255.601L160.264 255.415C160.358 255.508 160.452 255.508 160.546 255.601Z" fill="#3E240C"/>
<path d="M159.04 260.269C159.04 260.362 159.134 260.456 159.228 260.642L159.04 260.269Z" fill="#3E240C"/>
<path d="M160.452 261.016C160.546 261.016 160.546 261.109 160.64 261.109C160.546 261.016 160.452 261.016 160.452 261.016Z" fill="#3E240C"/>
<path d="M154.425 259.709C154.425 259.709 154.425 259.615 154.332 259.615C154.425 259.615 154.425 259.615 154.425 259.709Z" fill="#3E240C"/>
<path d="M154.52 260.269C154.52 260.269 154.426 260.269 154.52 260.269V260.363C154.52 260.456 154.52 260.363 154.52 260.269Z" fill="#3E240C"/>
<path d="M154.897 265.31L154.991 265.683C154.991 265.497 154.991 265.403 154.897 265.31Z" fill="#3E240C"/>
<path d="M154.237 259.242C154.237 259.335 154.332 259.429 154.332 259.522C154.332 259.429 154.332 259.429 154.237 259.242Z" fill="#3E240C"/>
<path d="M157.533 258.215C157.627 258.309 157.627 258.309 157.627 258.309C157.627 258.309 157.533 258.215 157.533 258.215Z" fill="#3E240C"/>
<path d="M161.205 254.201C161.205 254.108 161.205 254.108 161.111 254.014C160.923 254.108 161.017 254.108 161.205 254.201Z" fill="#3E240C"/>
<path d="M155.65 259.802C156.309 260.642 155.556 259.895 156.121 260.736C156.026 260.549 156.026 260.362 156.309 260.736C156.591 261.296 156.121 260.736 156.591 261.482L156.497 261.109C156.78 261.389 157.156 262.043 157.156 261.949C156.497 260.922 157.721 262.136 157.721 261.856V261.949L158.192 262.323C158.192 262.323 158.192 262.323 158.192 262.416C158.192 262.323 158.098 262.323 158.098 262.229C158.569 262.696 158.946 262.883 158.946 262.696C158.569 262.136 159.228 262.136 158.851 261.669C158.946 261.856 158.851 261.856 158.663 261.763L158.098 261.109C158.192 261.016 158.569 261.669 158.381 261.202C157.627 260.362 158.192 261.296 158.098 261.296C158.004 261.109 157.816 260.829 157.816 260.736C157.627 260.829 157.251 260.642 157.816 261.576C157.627 261.389 157.345 261.016 157.345 260.922C157.627 261.576 156.874 260.456 157.156 261.016C156.591 260.176 157.062 260.362 156.78 259.895C157.439 260.456 157.156 259.709 157.156 259.429C157.627 259.989 158.004 260.549 158.381 260.922C158.851 261.202 158.286 260.456 158.098 260.082C158.381 260.176 158.946 261.016 159.228 260.922L159.416 261.389C160.264 262.136 159.228 261.016 159.416 261.109C159.228 260.922 159.04 260.736 158.946 260.829C158.663 260.549 158.663 260.362 158.663 260.269C158.381 259.895 157.91 259.429 158.192 259.522C158.569 260.082 158.569 259.802 158.851 259.989L158.946 260.082C158.851 259.895 159.04 259.802 158.946 259.709L159.04 259.802C158.946 259.522 158.381 258.962 158.569 259.055C158.757 259.242 159.322 259.989 159.322 259.802C159.699 260.176 159.605 260.269 159.416 260.269C159.605 260.269 160.264 260.829 160.17 260.922C160.64 261.296 160.075 260.642 160.358 260.736C160.17 260.642 160.076 260.456 159.981 260.362C160.546 260.922 160.264 260.176 159.793 259.802L159.981 260.269C159.511 259.802 159.322 259.429 158.946 259.149C159.793 259.802 158.851 258.589 159.511 259.055L159.04 258.775C159.511 258.775 158.663 257.842 158.663 257.468C158.851 257.748 159.793 258.495 159.322 258.402C159.699 258.308 160.264 259.055 160.735 259.335C161.205 259.429 159.981 258.589 159.699 258.308L159.793 258.589C158.851 257.655 160.358 258.308 159.887 257.655C160.17 257.842 159.981 257.842 160.075 257.935C160.735 258.215 160.075 257.748 159.887 257.562C160.075 257.562 160.358 257.562 161.017 258.122C161.3 258.122 160.546 257.842 160.452 257.655L160.64 257.748L159.981 257.095C160.264 257.188 160.735 257.282 161.394 257.655C161.394 257.282 159.887 256.535 159.699 256.161C160.17 256.255 160.264 256.535 160.452 256.721V256.535C161.205 257.095 160.735 257.002 161.676 257.562C160.829 256.815 161.488 257.188 161.017 256.628H160.923C160.358 256.161 160.923 256.255 160.829 256.068C161.205 256.348 161.205 256.441 161.3 256.628C161.676 256.721 161.582 256.161 160.735 255.601C160.923 255.601 161.3 255.601 161.676 255.975C161.959 255.788 160.452 255.228 160.829 255.134L161.488 255.508C162.524 255.695 160.829 254.668 161.865 254.854L161.017 254.481C161.394 254.574 161.582 254.574 161.959 254.668L162.147 254.948C162.9 255.134 161.582 254.574 162.053 254.668C161.77 254.574 161.205 254.388 160.923 254.294C161.205 254.948 159.793 254.854 160.358 255.695C160.452 255.695 160.546 255.788 160.735 255.881C160.546 255.788 160.64 256.068 160.264 255.788L160.17 255.695C160.264 255.881 159.228 255.414 159.228 255.508C159.699 255.881 158.851 255.601 159.793 256.068L159.228 255.788C159.511 255.975 159.981 256.255 160.17 256.441C160.075 256.441 159.699 256.255 159.511 256.068C158.946 256.161 158.851 256.535 158.946 257.002L158.569 256.628C158.286 256.535 159.134 257.375 158.098 256.535C158.381 257.002 157.533 256.628 158.569 257.468C157.533 256.721 157.91 257.468 157.91 257.748C158.757 258.495 158.004 258.122 158.381 258.495C157.721 257.935 157.816 257.748 157.439 257.375C158.286 258.402 156.309 257.188 157.816 258.775C157.721 258.775 157.627 258.682 157.627 258.589C157.627 258.589 157.251 258.402 157.156 258.402C157.439 258.682 157.627 258.775 157.627 258.962C157.533 258.962 157.156 258.495 156.874 258.308C157.156 258.775 157.062 259.149 157.627 259.802C157.439 259.615 157.062 259.335 156.968 259.149C157.251 259.802 156.686 259.242 156.78 259.709C156.874 259.615 156.215 258.962 156.591 259.149C155.65 258.215 156.403 259.615 155.838 259.242L156.309 259.895C156.309 260.082 155.838 259.522 155.744 259.242C155.273 258.962 155.461 259.429 155.367 259.522C155.273 259.429 155.179 259.335 155.273 259.335L155.085 259.429C155.179 259.615 155.367 259.989 155.65 260.362C155.461 259.895 155.367 259.615 155.65 259.802Z" fill="#3E240C"/>
<path d="M159.887 261.482C159.699 261.389 159.605 261.296 159.605 261.296C159.699 261.296 159.793 261.389 159.887 261.482Z" fill="#3E240C"/>
<path d="M154.332 262.789C154.897 263.91 154.426 262.509 154.614 262.789C154.614 262.976 154.897 263.63 155.085 263.91C154.52 262.416 155.367 264.096 155.462 263.723C155.744 264.19 155.65 264.283 155.838 264.843C155.838 264.376 155.932 264.096 155.556 263.35C155.744 263.256 156.121 263.35 156.121 263.163C156.121 263.536 156.497 263.91 156.78 264.657C156.497 263.63 156.215 262.416 155.744 261.202C156.309 262.043 156.403 262.043 156.78 262.883C157.439 263.256 156.403 262.043 156.78 262.136L156.591 262.043C156.497 261.763 156.027 260.922 155.65 260.362L155.462 260.642C155.085 260.082 155.273 260.082 155.273 259.895C154.897 259.149 154.802 259.522 154.52 258.962C154.802 259.429 154.614 259.335 154.708 259.615L154.52 259.335C154.237 259.055 154.614 259.895 154.52 259.895C154.426 259.802 154.426 259.709 154.426 259.709C154.614 260.082 154.802 260.549 154.802 260.642V260.549C155.179 261.296 155.179 261.949 155.838 262.696L155.367 262.603C154.991 261.763 154.332 260.456 154.426 260.269L154.237 259.895C153.861 259.522 154.332 260.736 154.708 261.389C155.65 263.443 154.332 261.669 154.52 262.603C154.237 262.043 154.237 261.763 154.143 261.389C154.143 261.296 154.237 261.296 154.426 261.763C154.52 261.296 153.484 260.082 153.861 260.082C154.143 260.269 154.143 261.016 154.426 261.016L153.767 259.429C153.672 259.522 153.672 259.802 153.672 260.082C153.672 260.736 153.39 260.829 153.202 260.829C153.013 260.829 152.825 260.642 152.825 260.642C152.072 261.109 151.318 261.576 150.471 261.949C150.283 262.229 150.188 262.136 150.283 263.816C150.377 264.19 150.565 264.003 150.565 264.563C150.471 263.91 150.565 263.63 150.753 263.63C150.848 264.19 150.659 263.91 150.753 264.096C150.753 264.376 150.848 264.657 150.753 264.657C151.13 265.497 151.507 265.217 151.318 264.096C151.601 264.657 151.413 265.03 151.413 265.59C152.166 265.87 152.542 265.683 153.107 265.59C152.731 264.563 152.919 264.937 152.825 264.19L153.013 264.563C152.919 264.376 152.731 263.63 152.542 263.443C153.107 264.096 152.448 261.949 152.448 261.483L152.637 262.043C152.731 261.856 152.825 261.856 152.825 261.576C153.484 262.416 152.637 261.856 153.296 263.069V262.789C153.484 263.256 153.767 264.19 153.767 264.563C153.672 263.63 154.332 264.75 154.332 264.003C154.52 264.563 154.426 265.123 154.426 265.217C154.52 265.217 154.614 264.75 154.802 265.31L154.52 264.563C154.614 264.376 154.802 265.217 155.085 265.683C155.556 265.31 154.143 263.35 154.332 262.789Z" fill="#3E240C"/>
<path d="M158.192 260.829C158.098 260.829 158.098 260.829 158.098 260.923C158.098 260.923 158.192 260.923 158.192 260.829Z" fill="#3E240C"/>
<path d="M158.38 262.509C158.475 262.603 158.475 262.696 158.569 262.789C158.569 262.696 158.475 262.603 158.38 262.509Z" fill="#3E240C"/>
<path d="M159.04 263.443C158.851 263.163 158.851 263.163 158.569 262.789C158.663 263.07 158.569 263.163 159.04 263.443Z" fill="#3E240C"/>
<path d="M166.479 250.187C166.29 250.093 166.008 250 165.819 250L166.008 250.187H166.479Z" fill="#3E240C"/>
<path d="M165.537 250.373L165.16 250.467L166.196 250.747C166.29 250.56 165.537 250.56 165.537 250.373Z" fill="#3E240C"/>
<path d="M164.878 250.653L164.595 250.56C164.689 250.653 164.784 250.653 164.878 250.653Z" fill="#3E240C"/>
<path d="M165.349 250.84L166.102 251.027L165.631 250.653L165.349 250.84C165.16 250.747 165.066 250.747 164.878 250.747L165.443 250.934C165.349 250.84 165.254 250.747 165.349 250.84Z" fill="#3E240C"/>
<path d="M163.842 251.12C164.125 251.12 164.501 251.307 164.878 251.4C165.254 251.307 164.125 251.027 164.501 251.027C165.066 251.4 164.972 251.027 165.443 251.027C164.69 250.934 164.219 250.934 163.936 251.027L164.407 251.12C164.313 251.214 164.03 251.027 163.842 251.12Z" fill="#3E240C"/>
<path d="M164.784 252.24L164.125 251.96C164.501 252.054 164.501 251.867 165.254 252.054C165.16 251.96 164.878 251.867 164.69 251.774C165.066 251.774 165.349 251.867 164.878 251.68C164.313 251.867 164.125 251.774 163.842 251.96C163.654 251.96 163.748 251.867 163.748 251.867L163.371 251.96C164.219 251.96 164.219 252.24 164.784 252.24Z" fill="#3E240C"/>
<path d="M164.124 252.334C164.124 252.147 163.465 251.96 162.995 251.867L163.465 252.334C163.559 252.24 163.465 252.054 164.124 252.334Z" fill="#3E240C"/>
<path d="M164.125 252.521C163.748 252.427 162.9 252.334 163.654 252.614C163.465 252.427 164.501 252.801 164.125 252.521Z" fill="#3E240C"/>
<path d="M163.089 253.267L163.654 253.174C164.595 253.454 163.936 253.361 164.313 253.641C164.595 253.454 164.219 253.454 163.748 253.081C163.842 252.987 163.371 252.801 163.183 252.614C163.748 253.174 161.488 252.427 163.089 253.267Z" fill="#3E240C"/>
<path d="M164.219 253.081L163.842 252.894L164.125 253.174L164.219 253.081Z" fill="#3E240C"/>
<path d="M161.865 253.547C160.735 253.267 162.335 254.108 161.865 254.014C161.77 254.014 161.676 253.921 161.582 253.828V254.014L161.3 253.921C161.959 254.201 162.147 254.388 162.524 254.668C163.277 254.761 161.77 254.294 162.524 254.481C162.806 254.668 163.183 254.854 163.465 254.948C163.183 254.761 162.806 254.574 162.524 254.388C162.524 254.294 162.806 254.481 163.089 254.574C162.806 254.294 161.865 253.921 162.147 253.828C162.712 253.921 162.995 254.201 162.806 253.921C161.77 253.641 162.994 253.828 162.43 253.454C162.712 253.361 163.371 253.547 163.654 253.641C162.9 253.361 162.241 252.987 162.053 252.801L162.618 253.267L161.676 252.987C162.241 253.454 162.147 253.454 161.865 253.547Z" fill="#3E240C"/>
<path d="M163.654 254.948C163.747 254.948 163.747 255.041 163.747 255.041C163.841 255.135 163.747 255.041 163.654 254.948Z" fill="#3E240C"/>
<path d="M164.125 253.827L164.219 253.921L164.501 254.014L164.125 253.827Z" fill="#3E240C"/>
<path d="M164.219 255.415C164.219 255.415 163.936 255.228 163.936 255.321L164.313 255.508L164.219 255.415Z" fill="#3E240C"/>
<path d="M163.559 255.321L162.995 255.134L163.371 255.321H163.559Z" fill="#3E240C"/>
<path d="M161.394 258.122C161.77 258.215 161.205 257.842 160.829 257.562C160.546 257.562 161.205 257.842 161.394 258.122Z" fill="#3E240C"/>
<path d="M160.546 260.362C160.923 260.549 160.546 259.989 160.64 259.989C160.358 259.802 160.452 260.082 160.546 260.362Z" fill="#3E240C"/>
<path d="M161.488 262.696C161.394 262.509 161.3 262.416 161.205 262.416L160.452 261.483C160.075 261.296 161.111 262.323 161.488 262.696Z" fill="#3E240C"/>
<path d="M160.64 263.63L160.452 263.163H160.358C160.075 262.789 159.981 262.603 159.793 262.229C159.887 262.603 160.075 263.069 160.64 263.63Z" fill="#3E240C"/>
<path d="M159.793 262.043V262.136C159.887 262.229 159.981 262.323 159.793 262.043Z" fill="#3E240C"/>
<path d="M159.699 262.229C159.699 262.229 159.699 262.323 159.793 262.323C159.793 262.229 159.793 262.229 159.699 262.229C159.605 262.043 159.699 262.043 159.699 262.229Z" fill="#3E240C"/>
<path d="M160.17 263.35L159.981 263.63L160.264 263.723C159.793 263.163 160.641 264.003 160.17 263.35Z" fill="#3E240C"/>
<path d="M158.381 263.91L157.91 263.35C157.627 263.35 158.286 264.75 157.533 263.91C157.816 264.19 157.816 264.657 158.192 264.75C157.91 264.096 158.098 263.816 158.381 263.91Z" fill="#3E240C"/>
<path d="M157.156 263.443C157.062 263.256 156.968 263.163 156.78 262.976C156.686 262.976 156.78 263.256 156.968 263.536C156.497 262.696 157.345 264.003 157.156 263.443Z" fill="#3E240C"/>
<path d="M156.309 264.003C156.309 264.003 156.403 263.816 156.215 263.723C156.121 263.816 156.497 264.563 156.686 265.03C157.062 265.31 156.591 264.283 156.309 264.003Z" fill="#3E240C"/>
<path d="M152.825 259.802C153.107 260.362 153.202 260.269 153.107 259.989C153.107 260.176 153.013 259.989 152.825 259.802Z" fill="#3E240C"/>
<path d="M154.991 264.47L155.085 264.563L154.802 263.63L154.991 264.47Z" fill="#3E240C"/>
<path d="M154.237 265.31L154.332 265.963L154.52 265.777L154.237 265.31Z" fill="#3E240C"/>
<path d="M153.955 265.217L153.767 265.31L153.955 265.497C154.143 265.683 153.955 265.31 153.955 265.217Z" fill="#3E240C"/>
<path d="M153.484 265.59C153.484 265.497 153.578 265.59 153.578 265.683V265.217L153.484 265.59Z" fill="#3E240C"/>
<path d="M150.094 262.416C150 261.763 150 262.229 150 262.043C150 262.229 150.188 263.07 150.094 262.416Z" fill="#3E240C"/>
</g>
</svg>
